<svg xmlns="http://www.w3.org/2000/svg" xmlns:xlink="http://www.w3.org/1999/xlink" id="Layer_1" x="0px" y="0px" viewBox="0 0 400 96" style="enable-background:new 0 0 400 96;" xml:space="preserve">
<style type="text/css">
	.st0{fill:#101921;}
	.st1{fill:#5887DA;}
	.st2{fill:#2D68CB;}
	.st3{fill:#004EAA;}
</style>
<path class="st0" d="M162.9,62.6c-0.7-7.1-3.5-10.2-8.9-11.8v-0.2c7.5-2.1,10.7-7.3,10.7-14.2c0-9.7-7.5-16.3-18.8-16.3H119v58.5  h11.9V55.1h9.6c7.4,0,11,3.6,11.4,10s0.7,12.8,2.1,13.5h11.4V78C163.4,77.1,163.7,70.8,162.9,62.6z M143.5,46h-12.6V29.7h12.9  c6.3,0,9.3,3.5,9.3,8.3S149.9,46,143.5,46z"/>
<path class="st0" d="M186.3,35.5c-12.3,0-20.7,9.7-20.7,22.1s7.8,22.3,21.7,22.3c10.8,0,17.4-6.3,19-13.7h-11  c-1.2,3.2-3.8,5.2-8.1,5.2c-6.3,0-9.9-4-10.7-10.5H207C207,45.8,199.8,35.5,186.3,35.5z M176.7,53.1c1-5.5,3.8-9,9.7-9  c5.1,0,8.6,3.7,8.9,9H176.7z"/>
<path class="st0" d="M231,53.1c-6-1.2-11.5-1.6-11.5-5.2c0-3,2.9-4.7,7.2-4.7c4.7,0,7.6,1.6,8.1,6.1h10c-0.8-8.4-6.9-13.9-18-13.9  c-9.6,0-17.1,4.3-17.1,13.4s7.4,11.2,14.9,12.7c5.7,1.1,11,1.6,11,5.6c0,2.9-2.8,4.8-7.7,4.8c-4.9,0-8.4-2.1-9.1-7h-10.3  c0.7,8.9,7.4,14.8,19.6,14.8c10.5,0,17.7-5.1,17.7-13.5C245.8,56.5,238,54.6,231,53.1z"/>
<polygon class="st0" points="251,78.6 262.9,78.6 262.9,54.4 288.3,54.4 288.3,44.3 262.9,44.3 262.9,30.2 292.9,30.2 292.9,20.1   251,20.1 "/>
<path class="st0" d="M304.7,43.4h-0.2v-6.7h-10.7v42h11.1V58.2c0-8.8,5.2-12.7,12.5-11.9h0.2v-9.7c-0.8-0.3-1.7-0.4-2.6-0.3  C310.1,36.2,307.2,38.6,304.7,43.4z"/>
<path class="st0" d="M355.9,72.4V51.1c0-9.8-5.1-15.5-17.7-15.5c-12.3,0-17.7,6.5-18.1,13.8h9.9c0.3-4,2.9-5.9,8.1-5.9  c4.7,0,7,2,7,5c0,3.2-3.2,3.8-10.1,4.8c-9.3,1.3-16.8,4.3-16.8,13.5c0,8.3,6,12.8,14.6,12.8c7.2,0,10.2-2.5,12.3-5.6h0.2  c0.2,1.9,0.7,3.8,1.3,4.7h10.7v-0.4C356.4,77.5,355.9,75.6,355.9,72.4z M345.5,63.8c0,4.1-3.5,8-9.9,8c-3.9,0-6.5-1.4-6.5-5.3  c0-3.9,2.9-5.2,8.7-6.6c2.8-0.7,5.8-1.3,7.8-2.5L345.5,63.8z"/>
<path class="st0" d="M389.3,63.8c-0.7,4.7-3.9,7.1-8.4,7.1c-6.8,0-10-5.3-10-13.3s3.4-13.2,10.1-13.2c3.8-0.1,7.1,2.7,7.7,6.5h10.9  c-1.5-9.1-8.2-15.4-19-15.4c-12.8,0-20.9,9.7-20.9,22.2s8.3,22.2,21.5,22.2c11.2,0,18.1-7.1,18.9-16L389.3,63.8z"/>
<path class="st1" d="M54.9,1.6L96,34.9c1,1,1.5,2.3,1.5,3.7v32.1c0,2.9-2.4,5.3-5.3,5.3c-1.4,0-2.8-0.6-3.8-1.6L47.3,41.1  c-1-1-1.5-2.3-1.5-3.7V5.3c0-2.9,2.4-5.3,5.3-5.3C52.5,0,53.9,0.6,54.9,1.6z"/>
<path class="st2" d="M65.5,84.4L24.4,51.1c-1-1-1.5-2.3-1.5-3.7V15.2c0-2.9,2.4-5.3,5.3-5.3c1.4,0,2.8,0.6,3.8,1.6l41.1,33.3  c1,1,1.5,2.3,1.5,3.7v32.1c0,2.9-2.4,5.3-5.3,5.3C67.9,86,66.5,85.4,65.5,84.4z"/>
<path class="st3" d="M42.6,94.4L1.5,61.1c-1-1-1.5-2.3-1.5-3.7V25.3c0-2.9,2.4-5.3,5.3-5.3c1.4,0,2.8,0.6,3.8,1.6l41.1,33.3  c1,1,1.5,2.3,1.5,3.7v32.1c0,2.9-2.4,5.3-5.3,5.3C45,96,43.6,95.4,42.6,94.4z"/>
</svg>
